<?xml version="1.0" encoding="utf-8"?>
<!-- Generator: Adobe Illustrator 18.1.1, SVG Export Plug-In . SVG Version: 6.00 Build 0)  -->
<svg version="1.1" xmlns="http://www.w3.org/2000/svg" xmlns:xlink="http://www.w3.org/1999/xlink" x="0px" y="0px"
	 viewBox="0 0 1216 810" enable-background="new 0 0 1216 810" xml:space="preserve">
<g id="Laag_2">
</g>
<g id="Laag_1">
	<path fill="#C6CF52" d="M368.8,496.5l71.8-146.4c-39-16.1-66.4-54.4-66.4-99.2c0-59.2,48-107.3,107.3-107.3s107.3,48,107.3,107.3
		c0,44.9-27.6,83.4-66.8,99.3l-44.4,83.7C438.1,446.5,401.4,472.2,368.8,496.5z"/>
	<path fill="#A4D3BA" d="M834.6,494.5l-71.8-146.4c39-16.1,66.4-54.4,66.4-99.2c0-59.2-48-107.3-107.3-107.3
		c-59.2,0-107.3,48-107.3,107.3c0,44.9,27.6,83.4,66.8,99.3l41.6,84.1C762.6,444.9,802,470.3,834.6,494.5z"/>
	<path fill="#5FB397" stroke="#FFFFFF" stroke-miterlimit="10" d="M652.9,283.2c48.2-19.9,82.2-67.4,82.2-122.8
		c0-73.3-59.4-132.8-132.8-132.8S469.6,87.1,469.6,160.4c0,53.1,31.2,98.9,76.2,120.1l-24.8,53.6l-47,101.4
		c42.5-17,88.9-24.2,137.4-24.2c39,0,76.5,9.7,111.8,20.9l-46.9-101.7L652.9,283.2z"/>
	<path fill="none" stroke="#60B398" stroke-miterlimit="10" d="M239.8,773.8c0-200.2,162.3-362.5,362.5-362.5
		s362.5,162.3,362.5,362.5"/>
	<g>
		<path fill="#5FB397" d="M89.6,721.1H24.2V548.7h63v12.7H39.1l1,6V615l-1,6h44.8v13.7H39.1l1,6v60.8l-1,6h50.5V721.1z"/>
		<path fill="#5FB397" d="M248.2,750.8l-2.9,0.2l-3.1-0.5v-4.1c0-3.7,0.6-5.8,1.7-6.5l22.5-18.2c-12.5-2.4-21-10.5-25.6-24.3
			c-4.6-13.8-6.9-35.9-6.9-66.2c0-30.3,3-52.2,8.9-65.5c5.9-13.3,17-20,33.3-20c16.3,0,27.3,6.7,33.2,20c5.8,13.3,8.7,34.7,8.7,64.2
			c0,29.5-2,51-5.9,64.7c-3.9,13.7-11.1,22.3-21.7,26L264,739.6c4.3,0.3,17.8,1.9,40.4,4.8c22.6,2.9,35.9,4.3,39.9,4.3
			c4,0,6.3-0.1,6.9-0.2l3.1,0.5v4.6c0,4.3-0.6,6.8-1.8,7.5c-1.2,0.7-4.8,1.1-10.7,1.1c-5.9,0-21.6-1.9-47.1-5.6
			C269.3,752.7,253.8,750.8,248.2,750.8z M276,709.2c10.2,0,17.2-6.1,21.1-18.4c3.8-12.3,5.7-31.3,5.7-57c0-38.2-4.5-61.3-13.4-69.5
			c-3.5-3.2-8-4.8-13.4-4.8c-10.4,0-17.5,6-21.3,17.8c-3.8,11.9-5.7,30.6-5.7,56.2c0,38.8,4.6,62.4,13.9,70.9
			C266.3,707.6,270.7,709.2,276,709.2z"/>
		<path fill="#5FB397" d="M529.9,650V548.7h1.7c6.9,0,10.9,0.5,12.1,1.4c1.2,1,1.8,4.2,1.8,9.6V650c0,12.3-0.1,21.3-0.4,26.9
			c-0.2,5.7-1,12.2-2.3,19.5c-1.3,7.3-3.3,12.5-6,15.3c-6.9,7.3-17,11-30.4,11s-22.4-2.6-26.8-7.9c-1.9-2.2-3.5-4.2-4.8-5.9
			c-1.3-1.7-2.3-4.4-3.1-8.3c-0.8-3.8-1.4-7-1.9-9.5c-0.5-2.5-0.8-6.4-1.1-11.9c-0.2-5.4-0.4-9.7-0.4-12.9V548.7h1.7
			c6.9,0,10.9,0.5,12.1,1.4c1.2,1,1.8,4.2,1.8,9.6V650c0,1.1,0,4.2,0,9.2s0,9.3,0.1,12.9c0.1,3.6,0.3,8,0.7,13.2
			c0.4,5.2,1,8.9,1.9,11c0.9,2.2,2.1,4.4,3.7,6.8c2.9,4,8.2,6,16,6c10.9,0,17.5-4,19.9-11.9C528.7,689.4,529.9,673.6,529.9,650z"/>
		<path fill="#5FB397" d="M779,721.1c-7.2,0-11.5-0.5-12.8-1.4c-1.4-1-2.7-4.2-4-9.6l-10.5-47.7h-36.4l-12.9,58.7
			c-2.6,0-4.8,0-6.7,0c-1.9,0-3.5-0.2-4.8-0.5c-1.3-0.3-2.1-0.7-2.4-1.2c-0.3-0.5-0.5-1.3-0.5-2.4c0-1.1,12.6-57.2,37.8-168.4h15.3
			l39,172.5H779z M750,649.3l-2.2-6l-12-64h-4.6l-11.7,64l-2.2,6H750z"/>
		<path fill="#5FB397" d="M939.7,721.1h-1.9V567.4l1-6h-26.8v-12.7h67.8v12.7h-27.1l1,6v142.8c0,5.4-0.6,8.6-1.8,9.6
			C950.6,720.7,946.5,721.1,939.7,721.1z"/>
		<path fill="#5FB397" d="M1204.1,721.1c-8.1,0-13.2-0.5-15.1-1.4c-1.9-1-4.1-4.2-6.5-9.6l-32.3-70.9h-12.7l1,6v64.9h0.2
			c0,5.4-0.6,8.6-1.8,9.6c-1.2,1-5.2,1.4-12.1,1.4h-1.4V548.2l27.3-2.4c16.6,0,27.3,3.2,32.1,9.6c1.9,2.6,3.4,4.8,4.3,6.7
			c1,1.9,1.7,4.9,2.2,8.9c0.6,5.3,1,11.7,1,19.3c0,7.6-0.1,13.3-0.4,17.2c-0.2,3.9-0.8,8-1.8,12.2c-1,4.2-2.3,7.5-4.1,9.9
			c-4,5.6-10.2,8.7-18.7,9.3l39.8,82.2H1204.1z M1150.7,625.6c8.1,0,14.5-1.5,18.9-4.6c2.7-2.1,4.3-7.3,4.8-15.8
			c0.2-2.6,0.2-6.8,0.2-12.7c0-5.9-0.1-10.1-0.2-12.7c-0.2-2.6-0.6-5.5-1.3-8.9c-0.7-3.4-1.9-5.7-3.5-6.9c-4.5-3-10.8-4.6-18.9-4.6
			h-12.2v60.1l-1,6H1150.7z"/>
	</g>
</g>
</svg>
