<?xml version="1.0" encoding="utf-8"?>
<!-- Generator: Adobe Illustrator 19.1.0, SVG Export Plug-In . SVG Version: 6.00 Build 0)  -->
<!DOCTYPE svg PUBLIC "-//W3C//DTD SVG 1.1//EN" "http://www.w3.org/Graphics/SVG/1.1/DTD/svg11.dtd" [
	<!ENTITY ns_extend "http://ns.adobe.com/Extensibility/1.0/">
	<!ENTITY ns_ai "http://ns.adobe.com/AdobeIllustrator/10.0/">
	<!ENTITY ns_graphs "http://ns.adobe.com/Graphs/1.0/">
	<!ENTITY ns_vars "http://ns.adobe.com/Variables/1.0/">
	<!ENTITY ns_imrep "http://ns.adobe.com/ImageReplacement/1.0/">
	<!ENTITY ns_sfw "http://ns.adobe.com/SaveForWeb/1.0/">
	<!ENTITY ns_custom "http://ns.adobe.com/GenericCustomNamespace/1.0/">
	<!ENTITY ns_adobe_xpath "http://ns.adobe.com/XPath/1.0/">
]>
<svg version="1.1" id="Laag_1" xmlns:x="&ns_extend;" xmlns:i="&ns_ai;" xmlns:graph="&ns_graphs;"
	 xmlns="http://www.w3.org/2000/svg" xmlns:xlink="http://www.w3.org/1999/xlink" x="0px" y="0px" viewBox="1070 -284 2340 768"
	 style="enable-background:new 1070 -284 2340 768;" xml:space="preserve">
<style type="text/css">
	.st0{fill:#C6CF52;}
	.st1{fill:#60B398;}
	.st2{fill:#A4D3BA;}
	.st3{fill:none;stroke:#60B398;stroke-miterlimit:10;}
</style>
<metadata>
	<sfw  xmlns="&ns_sfw;">
		<slices></slices>
		<sliceSourceBounds  width="2234.8" height="746.2" x="38.9" y="11.2" bottomLeftOrigin="true"></sliceSourceBounds>
	</sfw>
</metadata>
<g id="Laag_2">
</g>
<g id="Laag_1_1_">
	<path class="st0" d="M1238.4,195.5l71.8-146.4c-39-16.1-66.4-54.4-66.4-99.2c0-59.2,48-107.3,107.3-107.3s107.3,48,107.3,107.3
		c0,44.9-27.6,83.4-66.8,99.3l-44.4,83.8C1307.7,145.6,1271,171.3,1238.4,195.5z"/>
	<g>
		<path class="st1" d="M1946.8,219.4h-81.9V3.4h78.9v15.9h-60.3l1.2,7.5v59.7l-1.2,7.5h56.1v17.1h-56.1l1.2,7.5v76.2l-1.2,7.5h63.3
			V219.4z"/>
		<path class="st1" d="M2145.4,256.6l-3.6,0.3l-3.9-0.6v-5.1c0-4.6,0.7-7.3,2.1-8.1l28.2-22.8c-15.6-3-26.3-13.1-32.1-30.5
			c-5.8-17.3-8.7-44.9-8.7-83c0-38,3.7-65.3,11.1-82.1c7.4-16.7,21.3-25,41.7-25c20.4,0,34.2,8.4,41.5,25c7.3,16.7,11,43.5,11,80.4
			s-2.5,63.9-7.3,81c-4.9,17.1-14,28-27.2,32.6l-33,23.7c5.4,0.4,22.2,2.4,50.5,6s44.9,5.4,50,5.4c5,0,7.9-0.1,8.7-0.3l3.9,0.6v5.7
			c0,5.4-0.8,8.5-2.3,9.5c-1.5,0.9-6,1.3-13.4,1.3s-27.1-2.4-59-7C2171.9,258.9,2152.4,256.6,2145.4,256.6z M2180.2,204.4
			c12.8,0,21.6-7.7,26.4-23.1c4.8-15.4,7.2-39.2,7.2-71.4c0-47.8-5.6-76.8-16.8-87c-4.4-4-10-6-16.8-6c-13,0-21.9,7.5-26.7,22.4
			c-4.8,14.9-7.2,38.4-7.2,70.4c0,48.6,5.8,78.2,17.4,88.8C2168.1,202.4,2173.6,204.4,2180.2,204.4z"/>
		<path class="st1" d="M2498.2,130.3V3.4h2.1c8.6,0,13.7,0.6,15.2,1.8s2.3,5.2,2.3,12v113.1c0,15.4-0.2,26.7-0.5,33.8
			c-0.3,7.1-1.3,15.3-2.9,24.4c-1.6,9.2-4.1,15.6-7.5,19.2c-8.6,9.2-21.3,13.8-38.1,13.8c-16.8,0-28-3.3-33.6-9.9
			c-2.4-2.8-4.4-5.3-6-7.4s-2.9-5.5-3.9-10.3s-1.8-8.7-2.4-11.8c-0.6-3.1-1-8-1.3-14.9c-0.3-6.8-0.5-12.2-0.5-16.2V3.4h2.1
			c8.6,0,13.6,0.6,15.1,1.8s2.3,5.2,2.3,12v113.1c0,1.4,0,5.3,0,11.5s0,11.7,0.2,16.2c0.1,4.5,0.4,10,0.9,16.5s1.3,11.1,2.4,13.8
			c1.1,2.7,2.6,5.5,4.7,8.5c3.6,5,10.3,7.5,20.1,7.5c13.6,0,21.9-5,24.9-14.8C2496.7,179.6,2498.2,159.9,2498.2,130.3z"/>
		<path class="st1" d="M2810.2,219.4c-9,0-14.4-0.6-16-1.8c-1.7-1.2-3.4-5.2-5-12l-13.2-59.7h-45.6l-16.2,73.5c-3.2,0-6,0-8.4,0
			s-4.4-0.2-6-0.6s-2.6-0.9-3-1.5s-0.6-1.6-0.6-3s15.8-71.7,47.4-210.9h19.2l48.9,216H2810.2z M2773.9,129.4l-2.7-7.5l-15-80.1h-5.7
			l-14.7,80.1l-2.7,7.5H2773.9z"/>
		<path class="st1" d="M3011.5,219.4h-2.4V26.8l1.2-7.5h-33.6V3.4h84.9v15.9h-33.9l1.2,7.5v178.8c0,6.8-0.8,10.8-2.3,12
			S3020.1,219.4,3011.5,219.4z"/>
		<path class="st1" d="M3342.7,219.4c-10.2,0-16.5-0.6-18.9-1.8c-2.4-1.2-5.1-5.2-8.1-12l-40.5-88.8h-15.9l1.2,7.5v81.3h0.3
			c0,6.8-0.8,10.8-2.3,12s-6.6,1.8-15.2,1.8h-1.8V2.8l34.2-3c20.8,0,34.2,4,40.2,12c2.4,3.2,4.2,6,5.4,8.4s2.1,6.1,2.7,11.1
			c0.8,6.6,1.2,14.7,1.2,24.1c0,9.5-0.2,16.7-0.5,21.6s-1,10-2.3,15.3c-1.2,5.3-2.9,9.5-5.1,12.5c-5,7-12.8,10.9-23.4,11.7
			l49.8,102.9H3342.7z M3275.8,99.7c10.2,0,18.1-1.9,23.7-5.7c3.4-2.6,5.4-9.2,6-19.8c0.2-3.2,0.3-8.5,0.3-15.9s-0.1-12.7-0.3-15.9
			c-0.2-3.2-0.8-6.9-1.7-11.1s-2.4-7.1-4.3-8.7c-5.6-3.8-13.5-5.7-23.7-5.7h-15.3v75.3l-1.2,7.5H3275.8z"/>
	</g>
	<path class="st2" d="M1704.2,193.6l-71.8-146.4c39-16.1,66.4-54.4,66.4-99.2c0-59.2-48-107.3-107.3-107.3
		c-59.3,0-107.3,48-107.3,107.3c0,44.9,27.6,83.4,66.8,99.3l41.6,84.1C1632.2,144,1671.6,169.4,1704.2,193.6z"/>
	<path class="st1" d="M1522.5-17.8c48.2-19.9,82.2-67.4,82.2-122.8c0-73.3-59.4-132.8-132.8-132.8s-132.7,59.5-132.7,132.9
		c0,53.1,31.2,98.9,76.2,120.1l-24.8,53.6l-47,101.4c42.5-17,88.9-24.2,137.4-24.2c39,0,76.5,9.7,111.8,20.9l-46.9-101.7
		L1522.5-17.8z"/>
	<path class="st3" d="M1109.4,472.8c0-200.2,162.3-362.5,362.5-362.5s362.5,162.3,362.5,362.5"/>
</g>
</svg>
