<?xml version="1.0" encoding="utf-8"?>
<!-- Generator: Adobe Illustrator 18.1.1, SVG Export Plug-In . SVG Version: 6.00 Build 0)  -->
<svg version="1.1" xmlns="http://www.w3.org/2000/svg" xmlns:xlink="http://www.w3.org/1999/xlink" x="0px" y="0px"
	 viewBox="0 0 2340 768" enable-background="new 0 0 2340 768" xml:space="preserve">
<g id="Laag_2">
</g>
<g id="Laag_1">
	<path fill="#60B398" d="M168.4,479.5l71.8-146.4c-39-16.1-66.4-54.4-66.4-99.2c0-59.2,48-107.3,107.3-107.3s107.3,48,107.3,107.3
		c0,44.9-27.6,83.4-66.8,99.3L277.2,417C237.7,429.6,201,455.3,168.4,479.5z"/>
	<g>
		<path fill="#F7F7F7" d="M876.8,503.4h-81.9v-216h78.9v15.9h-60.3l1.2,7.5v59.7l-1.2,7.5h56.1v17.1h-56.1l1.2,7.5v76.2l-1.2,7.5
			h63.3V503.4z"/>
		<path fill="#F7F7F7" d="M1075.4,540.6l-3.6,0.3l-3.9-0.6v-5.1c0-4.6,0.7-7.3,2.1-8.1l28.2-22.8c-15.6-3-26.3-13.1-32.1-30.5
			c-5.8-17.3-8.7-44.9-8.7-83c0-38,3.7-65.3,11.1-82.1c7.4-16.7,21.3-25,41.7-25c20.4,0,34.2,8.4,41.5,25c7.3,16.7,11,43.5,11,80.4
			c0,36.9-2.5,63.9-7.3,81c-4.9,17.1-14,28-27.2,32.6l-33,23.7c5.4,0.4,22.2,2.4,50.5,6c28.3,3.6,44.9,5.4,50,5.4
			c5,0,7.9-0.1,8.7-0.3l3.9,0.6v5.7c0,5.4-0.8,8.5-2.3,9.5c-1.5,0.9-6,1.3-13.4,1.3c-7.4,0-27.1-2.4-59-7
			C1101.9,542.9,1082.4,540.6,1075.4,540.6z M1110.2,488.4c12.8,0,21.6-7.7,26.4-23.1c4.8-15.4,7.2-39.2,7.2-71.4
			c0-47.8-5.6-76.8-16.8-87c-4.4-4-10-6-16.8-6c-13,0-21.9,7.5-26.7,22.4c-4.8,14.9-7.2,38.4-7.2,70.4c0,48.6,5.8,78.2,17.4,88.8
			C1098.1,486.4,1103.6,488.4,1110.2,488.4z"/>
		<path fill="#F7F7F7" d="M1428.2,414.3V287.4h2.1c8.6,0,13.7,0.6,15.2,1.8s2.3,5.2,2.3,12v113.1c0,15.4-0.2,26.7-0.5,33.8
			c-0.3,7.1-1.3,15.3-2.9,24.4c-1.6,9.2-4.1,15.6-7.5,19.2c-8.6,9.2-21.3,13.8-38.1,13.8s-28-3.3-33.6-9.9c-2.4-2.8-4.4-5.3-6-7.4
			c-1.6-2.1-2.9-5.5-3.9-10.3c-1-4.8-1.8-8.7-2.4-11.8c-0.6-3.1-1-8-1.3-14.9c-0.3-6.8-0.5-12.2-0.5-16.2V287.4h2.1
			c8.6,0,13.6,0.6,15.1,1.8s2.3,5.2,2.3,12v113.1c0,1.4,0,5.3,0,11.5s0,11.7,0.2,16.2c0.1,4.5,0.4,10,0.9,16.5
			c0.5,6.5,1.3,11.1,2.4,13.8c1.1,2.7,2.6,5.5,4.7,8.5c3.6,5,10.3,7.5,20.1,7.5c13.6,0,21.9-5,24.9-14.8
			C1426.7,463.6,1428.2,443.9,1428.2,414.3z"/>
		<path fill="#F7F7F7" d="M1740.2,503.4c-9,0-14.4-0.6-16-1.8c-1.7-1.2-3.4-5.2-5-12l-13.2-59.7h-45.6l-16.2,73.5c-3.2,0-6,0-8.4,0
			c-2.4,0-4.4-0.2-6-0.6c-1.6-0.4-2.6-0.9-3-1.5c-0.4-0.6-0.6-1.6-0.6-3c0-1.4,15.8-71.7,47.4-210.9h19.2l48.9,216H1740.2z
			 M1703.9,413.4l-2.7-7.5l-15-80.1h-5.7l-14.7,80.1l-2.7,7.5H1703.9z"/>
		<path fill="#F7F7F7" d="M1941.5,503.4h-2.4V310.8l1.2-7.5h-33.6v-15.9h84.9v15.9h-33.9l1.2,7.5v178.8c0,6.8-0.8,10.8-2.3,12
			S1950.1,503.4,1941.5,503.4z"/>
		<path fill="#F7F7F7" d="M2272.7,503.4c-10.2,0-16.5-0.6-18.9-1.8c-2.4-1.2-5.1-5.2-8.1-12l-40.5-88.8h-15.9l1.2,7.5v81.3h0.3
			c0,6.8-0.8,10.8-2.3,12s-6.6,1.8-15.2,1.8h-1.8V286.8l34.2-3c20.8,0,34.2,4,40.2,12c2.4,3.2,4.2,6,5.4,8.4
			c1.2,2.4,2.1,6.1,2.7,11.1c0.8,6.6,1.2,14.7,1.2,24.1c0,9.5-0.2,16.7-0.5,21.6c-0.3,4.9-1,10-2.3,15.3c-1.2,5.3-2.9,9.5-5.1,12.5
			c-5,7-12.8,10.9-23.4,11.7l49.8,102.9H2272.7z M2205.8,383.7c10.2,0,18.1-1.9,23.7-5.7c3.4-2.6,5.4-9.2,6-19.8
			c0.2-3.2,0.3-8.5,0.3-15.9c0-7.4-0.1-12.7-0.3-15.9c-0.2-3.2-0.8-6.9-1.7-11.1c-0.9-4.2-2.4-7.1-4.3-8.7
			c-5.6-3.8-13.5-5.7-23.7-5.7h-15.3v75.3l-1.2,7.5H2205.8z"/>
	</g>
	<path fill="#A4D3BA" d="M634.2,477.6l-71.8-146.4c39-16.1,66.4-54.4,66.4-99.2c0-59.2-48-107.3-107.3-107.3s-107.3,48-107.3,107.3
		c0,44.9,27.6,83.4,66.8,99.3l41.6,84.1C562.2,428,601.6,453.4,634.2,477.6z"/>
	<path fill="#F7F7F7" stroke="#FFFFFF" stroke-miterlimit="10" d="M452.5,266.2c48.2-19.9,82.2-67.4,82.2-122.8
		c0-73.3-59.4-132.8-132.8-132.8S269.2,70.1,269.2,143.5c0,53.1,31.2,98.9,76.2,120.1l-24.8,53.6l-47,101.4
		c42.5-17,88.9-24.2,137.4-24.2c39,0,76.5,9.7,111.8,20.9l-46.9-101.7L452.5,266.2z"/>
	<path fill="none" stroke="#F7F7F7" stroke-width="2" stroke-miterlimit="10" d="M39.4,756.8c0-200.2,162.3-362.5,362.5-362.5
		s362.5,162.3,362.5,362.5"/>
</g>
</svg>
