<?xml version="1.0" encoding="utf-8"?>
<!-- Generator: Adobe Illustrator 19.1.0, SVG Export Plug-In . SVG Version: 6.00 Build 0)  -->
<!DOCTYPE svg PUBLIC "-//W3C//DTD SVG 1.1//EN" "http://www.w3.org/Graphics/SVG/1.1/DTD/svg11.dtd" [
	<!ENTITY ns_extend "http://ns.adobe.com/Extensibility/1.0/">
	<!ENTITY ns_ai "http://ns.adobe.com/AdobeIllustrator/10.0/">
	<!ENTITY ns_graphs "http://ns.adobe.com/Graphs/1.0/">
	<!ENTITY ns_vars "http://ns.adobe.com/Variables/1.0/">
	<!ENTITY ns_imrep "http://ns.adobe.com/ImageReplacement/1.0/">
	<!ENTITY ns_sfw "http://ns.adobe.com/SaveForWeb/1.0/">
	<!ENTITY ns_custom "http://ns.adobe.com/GenericCustomNamespace/1.0/">
	<!ENTITY ns_adobe_xpath "http://ns.adobe.com/XPath/1.0/">
]>
<svg version="1.1" id="Laag_1" xmlns:x="&ns_extend;" xmlns:i="&ns_ai;" xmlns:graph="&ns_graphs;"
	 xmlns="http://www.w3.org/2000/svg" xmlns:xlink="http://www.w3.org/1999/xlink" x="0px" y="0px" viewBox="0 0 293 90.4"
	 style="enable-background:new 0 0 293 90.4;" xml:space="preserve">
<style type="text/css">
	.Slagschaduw{fill:none;}
	.Afgeronde_x0020_hoeken_x0020_2_x0020_pt{fill:#FFFFFF;stroke:#000000;stroke-miterlimit:10;}
	.X_x0020_actief_x0020_weerspiegelen{fill:none;}
	.Zachte_x0020_schuine_x0020_kant{fill:url(#SVGID_1_);}
	.Schemering{fill:#FFFFFF;}
	.Gebladerte_AS{fill:#FFDD00;}
	.Pompadoer_AS{fill-rule:evenodd;clip-rule:evenodd;fill:#51AEE2;}
	.st0{fill:#575756;stroke:#FFFFFF;stroke-miterlimit:10;}
	.st1{fill:#FAFAFA;}
	.st2{fill:none;stroke:#FAFAFA;stroke-width:2;stroke-miterlimit:10;}
	.st3{fill:#5DB298;}
</style>
<metadata>
	<sfw  xmlns="&ns_sfw;">
		<slices></slices>
		<sliceSourceBounds  width="213.9" height="86.8" x="43.8" y="-141.4" bottomLeftOrigin="true"></sliceSourceBounds>
	</sfw>
</metadata>
<linearGradient id="SVGID_1_" gradientUnits="userSpaceOnUse" x1="0" y1="-52" x2="0.7071" y2="-51.2929">
	<stop  offset="0" style="stop-color:#E6E6EB"/>
	<stop  offset="0.1738" style="stop-color:#E2E2E6"/>
	<stop  offset="0.352" style="stop-color:#D5D4D8"/>
	<stop  offset="0.5323" style="stop-color:#C0BFC2"/>
	<stop  offset="0.7139" style="stop-color:#A4A2A4"/>
	<stop  offset="0.8949" style="stop-color:#828282"/>
	<stop  offset="1" style="stop-color:#6B6E6E"/>
</linearGradient>
<g>
	<path class="st0" d="M84.4,26.4c0-6.8-5.5-12.2-12.2-12.2c-6.8,0-12.2,5.5-12.2,12.2c0,4.9,2.9,9.1,7,11.1l-9.7,20.9
		c4-4,8.8-7.2,14.1-9.3l5.2-11.3C81.2,36,84.4,31.6,84.4,26.4z"/>
	<g>
		<path class="st1" d="M138.2,60.7V43.3h6.4v1.3h-4.9l0.1,0.6V50l-0.1,0.6h4.5V52h-4.5l0.1,0.6v6.2l-0.1,0.6h5.1v1.4H138.2z"/>
		<path class="st1" d="M171.6,64c0,0.9,0,0.9-1.4,0.9c-1.5,0-7.7-1.1-9.3-1.1c-0.1,0-0.2,0-0.3,0l-0.3,0v-0.4c0-0.4,0-0.6,0.2-0.7
			l2.3-1.8c-2.6-0.5-3.3-3.4-3.3-8.9c0-6.2,0.8-8.9,4.3-8.9c3.4,0,4.2,2.7,4.2,8.9c0,5.2-0.6,8-2.8,8.8l-2.7,1.9
			c2.2,0.2,6.8,0.9,8.4,0.9c0.2,0,0.3,0,0.4,0l0.3,0V64z M166.4,51.9c0-4.8-0.5-7.5-2.7-7.5S161,47,161,51.9c0,4.8,0.5,7.7,2.7,7.7
			S166.4,56.7,166.4,51.9z"/>
		<path class="st1" d="M189.4,43.3h0.2c1.4,0,1.4,0,1.4,1.1v9.1c0,5,0,7.4-4,7.4c-3.9,0-3.9-2.4-3.9-7.4V43.3h0.2
			c1.4,0,1.4,0,1.4,1.1v9.1c0,4.2-0.1,6,2.3,6c2.4,0,2.4-1.8,2.4-6V43.3z"/>
		<path class="st1" d="M214.6,60.7c-1.5,0-1.5,0-1.7-1.1l-1.1-4.8h-3.7l-1.3,5.9h-0.1c-1,0-1.3,0-1.3-0.4c0-0.2,0-0.4,3.8-17.1h1.6
			l4,17.4H214.6z M211.4,52.8l-1.2-6.5h-0.5l-1.2,6.5l-0.2,0.6h3.3L211.4,52.8z"/>
		<path class="st1" d="M230.6,60.7V45.2l0.1-0.6H228v-1.3h6.9v1.3h-2.7l0.1,0.6v14.4c0,1.1,0,1.1-1.4,1.1H230.6z"/>
		<path class="st1" d="M257.6,60.7c-1.6,0-1.7,0-2.2-1.1l-3.3-7.2h-1.3l0.1,0.6v6.6h0c0,1.1,0,1.1-1.4,1.1h-0.1V43.2l2.8-0.2
			c4,0,4,1.8,4,4.7c0,2.7-0.2,4.6-2.5,4.7L257.6,60.7L257.6,60.7z M252.2,51.1c2.4,0,2.4-0.9,2.4-3.3c0-2.4,0-3.3-2.4-3.3h-1.2V45
			v5.5l-0.1,0.6H252.2z"/>
	</g>
	<path class="st2" d="M129.2,88.4c0,0,0.1,0,0.1,0c0-13.9-6.7-26.2-17.1-33.9c-3.7-2.8-7.9-4.9-12.4-6.4c-4-1.3-8.3-2-12.8-2
		c-5.5,0-10.8,1.1-15.7,3c-5.3,2.1-10.1,5.3-14.1,9.3c-7.7,7.7-12.5,18.3-12.5,30c0,0,0.1,0,0.1,0"/>
	<path class="st3" d="M112.3,54.4l-8.2-16.7c4.4-1.8,7.6-6.2,7.6-11.3c0-6.8-5.5-12.2-12.2-12.2c-6.8,0-12.2,5.5-12.2,12.2
		c0,5.1,3.2,9.5,7.6,11.3l5.1,10.3C104.4,49.5,108.6,51.7,112.3,54.4z"/>
	<path class="st1" d="M91.8,31.7c5.5-2.3,9.4-7.7,9.4-14c0-8.4-6.8-15.2-15.2-15.2S70.9,9.3,70.9,17.7c0,6.1,3.6,11.3,8.7,13.7
		l-2.8,6.1l-5.4,11.6c4.8-1.9,10.1-3,15.7-3c4.5,0,8.8,0.7,12.8,2l-5.4-10.9L91.8,31.7z"/>
</g>
</svg>
